<svg width="29" height="27" viewBox="0 0 29 27" fill="none" xmlns="http://www.w3.org/2000/svg">
<path d="M8.12184 4.31724H27.2282L24.6287 13.4154H9.52159M25.9284 18.6143H10.3316L7.73218 1.71777H3.83299M3.83299 8.21644H1.23352M5.13272 12.1156H1.23352M6.43245 16.0148H1.23352M11.6314 23.8132C11.6314 24.5311 11.0495 25.113 10.3316 25.113C9.61383 25.113 9.03192 24.5311 9.03192 23.8132C9.03192 23.0954 9.61383 22.5135 10.3316 22.5135C11.0495 22.5135 11.6314 23.0954 11.6314 23.8132ZM25.9284 23.8132C25.9284 24.5311 25.3466 25.113 24.6287 25.113C23.9109 25.113 23.329 24.5311 23.329 23.8132C23.329 23.0954 23.9109 22.5135 24.6287 22.5135C25.3466 22.5135 25.9284 23.0954 25.9284 23.8132Z" stroke="white" stroke-width="2.20955" stroke-linecap="round" stroke-linejoin="round"/>
</svg>
