<svg width="25" height="26" viewBox="0 0 25 26" fill="none" xmlns="http://www.w3.org/2000/svg">
<path d="M12.5 0C5.59476 0 0 5.81855 0 13C0 20.1814 5.59476 26 12.5 26C19.4052 26 25 20.1814 25 13C25 5.81855 19.4052 0 12.5 0ZM15.378 18.352L10.9325 14.9919C10.7762 14.8714 10.6855 14.6827 10.6855 14.4835V5.66129C10.6855 5.31532 10.9577 5.03226 11.2903 5.03226H13.7097C14.0423 5.03226 14.3145 5.31532 14.3145 5.66129V12.8794L17.5151 15.3012C17.7873 15.5056 17.8427 15.8988 17.6462 16.1819L16.2248 18.2157C16.0282 18.4935 15.6502 18.5565 15.378 18.352Z" fill="#008D77"/>
</svg>
