<svg width="23" height="20" viewBox="0 0 23 20" fill="none" xmlns="http://www.w3.org/2000/svg">
<path d="M22.5782 9.11393L12.5188 0.366791C11.9564 -0.122264 11.044 -0.122264 10.4812 0.366791L0.421816 9.11393C-0.140605 9.60337 -0.140605 10.3963 0.421816 10.8858L10.4812 19.6329C11.0436 20.1224 11.956 20.1224 12.5188 19.6329L22.5782 10.8858C23.1406 10.3963 23.1406 9.60337 22.5782 9.11393ZM18.042 9.60455L14.2591 12.6408C14.0291 12.8256 13.6558 12.6838 13.6558 12.4111V10.3123H9.3433V12.8123C9.3433 12.985 9.18248 13.1248 8.98393 13.1248H7.54643C7.34787 13.1248 7.18705 12.985 7.18705 12.8123V9.68736C7.18705 8.99713 7.83078 8.43738 8.62455 8.43738H13.6558V6.33858C13.6558 6.06632 14.0287 5.92413 14.2591 6.10889L18.042 9.14518C18.1961 9.269 18.1961 9.48072 18.042 9.60455Z" fill="#16C8AD"/>
</svg>
