<svg width="20" height="17" viewBox="0 0 20 17" fill="none" xmlns="http://www.w3.org/2000/svg">
<path d="M9.55128 8.66871C12.5659 8.66871 15.0092 6.84207 15.0092 4.58826C15.0092 2.33445 12.5659 0.507812 9.55128 0.507812C6.53666 0.507812 4.09341 2.33445 4.09341 4.58826C4.09341 6.84207 6.53666 8.66871 9.55128 8.66871ZM4.43453 14.0243C4.43453 14.4483 4.89077 14.7894 5.45788 14.7894C6.02498 14.7894 6.48123 14.4483 6.48123 14.0243C6.48123 13.6003 6.02498 13.2592 5.45788 13.2592C4.89077 13.2592 4.43453 13.6003 4.43453 14.0243ZM13.6447 9.70795V11.27C15.201 11.5059 16.3736 12.5388 16.3736 13.7693V15.0986C16.3736 15.3409 16.1434 15.5513 15.8236 15.5991L14.4506 15.8031C14.2672 15.8318 14.0881 15.7426 14.0498 15.6023L13.9176 15.1018C13.8792 14.9647 13.9986 14.8276 14.1862 14.8021L15.0092 14.6778V13.7693C15.0092 11.7673 10.9158 11.694 10.9158 13.8298V14.681L11.7387 14.8053C11.922 14.834 12.0414 14.9679 12.0073 15.105L11.8751 15.6055C11.8368 15.7426 11.6577 15.8318 11.4743 15.8063L10.144 15.6724C9.80712 15.6374 9.55555 15.4238 9.55555 15.1656V13.7693C9.55555 12.5388 10.7281 11.5091 12.2845 11.27V9.82909C12.1907 9.8514 12.0969 9.86416 12.0031 9.88966C11.2356 10.0905 10.4126 10.2021 9.55555 10.2021C8.69849 10.2021 7.87555 10.0905 7.10803 9.88966C6.7925 9.80677 6.4727 9.75577 6.14438 9.72389V12.3252C7.12935 12.5451 7.84996 13.221 7.84996 14.0275C7.84996 15.0125 6.77971 15.8127 5.46214 15.8127C4.14458 15.8127 3.07432 15.0125 3.07432 14.0275C3.07432 13.221 3.79493 12.5451 4.77991 12.3252V9.76214C2.06802 10.1032 0 11.8502 0 13.9733V15.4015C0 16.1889 0.857057 16.8296 1.91026 16.8296H17.1923C18.2455 16.8296 19.1026 16.1889 19.1026 15.4015V13.9733C19.1026 11.678 16.6806 9.81953 13.6447 9.70795Z" fill="#16C8AD"/>
</svg>
