<svg width="23" height="22" viewBox="0 0 23 22" fill="none" xmlns="http://www.w3.org/2000/svg">
<path d="M9.36202 1.49415L17.7918 6.31987M9.36202 1.49415L2.24811 13.7455C0.905069 16.0584 1.70209 19.0159 4.0283 20.3513C6.35451 21.6867 9.32902 20.8942 10.6721 18.5813L12.1708 16.0003M9.36202 1.49415L8.52423 1M17.7918 6.31987L15.5293 10.2163M17.7918 6.31987L18.6343 6.80374M12.1708 16.0003L13.812 13.1738M12.1708 16.0003L9.55211 14.4971M15.5293 10.2163L13.812 13.1738M15.5293 10.2163L12.9655 8.74451M13.812 13.1738L9.59951 10.7556" stroke="#16C8AD" stroke-width="1.5" stroke-linecap="round"/>
<path d="M21.6398 13.9166C21.6398 15.0672 20.7424 15.9999 19.6352 15.9999C18.5281 15.9999 17.6307 15.0672 17.6307 13.9166C17.6307 13.1967 18.4155 12.2358 19.0029 11.6174C19.3507 11.2512 19.9198 11.2512 20.2676 11.6174C20.855 12.2358 21.6398 13.1967 21.6398 13.9166Z" stroke="#16C8AD" stroke-width="1.5"/>
</svg>
