<svg width="19" height="19" viewBox="0 0 19 19" fill="none" xmlns="http://www.w3.org/2000/svg">
<path fill-rule="evenodd" clip-rule="evenodd" d="M16.034 16.2122C16.034 16.7642 15.5209 17.0001 14.8887 17.0001H13.7434C13.1112 17.0001 12.5981 16.7642 12.5981 16.2122V15.2122C12.5981 14.1072 11.5731 13.0001 10.3076 13.0001H8.017C6.75146 13.0001 5.72643 14.1072 5.72643 15.2122V16.2122C5.72643 16.7642 5.21334 17.0001 4.58114 17.0001H3.43586C2.80366 17.0001 2.29057 16.7642 2.29057 16.2122V8.14912C2.29057 8.01612 2.35127 7.88911 2.45778 7.79511L8.34112 2.65913C8.78893 2.26813 9.5139 2.26813 9.96056 2.65913L15.8668 7.81513C15.9733 7.90913 16.034 8.03616 16.034 8.16816V16.2122ZM18.3246 7.62513C18.3246 7.36013 18.2043 7.10714 17.9913 6.91914L10.7772 0.589121C9.88383 -0.193879 8.43273 -0.196861 7.53597 0.583139L0.336717 6.84815C0.121403 7.03615 0 7.29016 0 7.55616V17.2122C0 18.3172 1.02503 19.0001 2.29057 19.0001H5.72643C6.99197 19.0001 8.017 18.3172 8.017 17.2122V16.2122C8.017 15.6602 8.53009 15.2122 9.16229 15.2122C9.79449 15.2122 10.3076 15.6602 10.3076 16.2122V17.2122C10.3076 18.3172 11.3326 19.0001 12.5981 19.0001H16.034C17.2995 19.0001 18.3246 18.3172 18.3246 17.2122V7.62513Z" fill="#16C8AD"/>
</svg>
