<svg width="18" height="17" viewBox="0 0 18 17" fill="none" xmlns="http://www.w3.org/2000/svg">
<path d="M17.5576 16.192V16.8296H0V16.192C0 15.9808 0.210574 15.8095 0.470293 15.8095H1.25411V4.33323C1.25411 3.91068 1.67522 3.56815 2.1947 3.56815H5.64351V1.2729C5.64351 0.850347 6.06462 0.507812 6.5841 0.507812H10.9735C11.493 0.507812 11.9141 0.850347 11.9141 1.2729V3.56815H15.3629C15.8824 3.56815 16.3035 3.91068 16.3035 4.33323V15.8095H17.0873C17.347 15.8095 17.5576 15.9808 17.5576 16.192ZM12.0708 6.62849H10.5032C10.2435 6.62849 10.0329 6.79977 10.0329 7.01103V8.28617C10.0329 8.49743 10.2435 8.66871 10.5032 8.66871H12.0708C12.3306 8.66871 12.5411 8.49743 12.5411 8.28617V7.01103C12.5411 6.79977 12.3306 6.62849 12.0708 6.62849ZM5.48675 8.66871H7.05439C7.31411 8.66871 7.52468 8.49743 7.52468 8.28617V7.01103C7.52468 6.79977 7.31411 6.62849 7.05439 6.62849H5.48675C5.22703 6.62849 5.01645 6.79977 5.01645 7.01103V8.28617C5.01645 8.49743 5.22703 8.66871 5.48675 8.66871ZM9.56262 12.7492H7.99497C7.73525 12.7492 7.52468 12.9204 7.52468 13.1317V15.8095H10.0329V13.1317C10.0329 12.9204 9.82234 12.7492 9.56262 12.7492ZM12.0708 9.68882H10.5032C10.2435 9.68882 10.0329 9.86011 10.0329 10.0714V11.3465C10.0329 11.5578 10.2435 11.729 10.5032 11.729H12.0708C12.3306 11.729 12.5411 11.5578 12.5411 11.3465V10.0714C12.5411 9.86011 12.3306 9.68882 12.0708 9.68882ZM7.52468 10.0714C7.52468 9.86011 7.31411 9.68882 7.05439 9.68882H5.48675C5.22703 9.68882 5.01645 9.86011 5.01645 10.0714V11.3465C5.01645 11.5578 5.22703 11.729 5.48675 11.729H7.05439C7.31411 11.729 7.52468 11.5578 7.52468 11.3465V10.0714ZM7.13277 3.56815H8.15174V4.39699C8.15174 4.44772 8.17651 4.49637 8.22061 4.53224C8.26471 4.56811 8.32452 4.58826 8.38688 4.58826H9.17071C9.23307 4.58826 9.29288 4.56811 9.33698 4.53224C9.38108 4.49637 9.40585 4.44772 9.40585 4.39699V3.56815H10.4248C10.4872 3.56815 10.547 3.548 10.5911 3.51213C10.6352 3.47626 10.66 3.42761 10.66 3.37688V2.73931C10.66 2.68858 10.6352 2.63993 10.5911 2.60406C10.547 2.56819 10.4872 2.54804 10.4248 2.54804H9.40585V1.7192C9.40585 1.66847 9.38108 1.61982 9.33698 1.58395C9.29288 1.54808 9.23307 1.52792 9.17071 1.52792H8.38688C8.32452 1.52792 8.26471 1.54808 8.22061 1.58395C8.17651 1.61982 8.15174 1.66847 8.15174 1.7192V2.54804H7.13277C7.07041 2.54804 7.0106 2.56819 6.9665 2.60406C6.9224 2.63993 6.89762 2.68858 6.89762 2.73931V3.37688C6.89762 3.42761 6.9224 3.47626 6.9665 3.51213C7.0106 3.548 7.07041 3.56815 7.13277 3.56815Z" fill="#16C8AD"/>
</svg>
