<svg width="25" height="26" viewBox="0 0 25 26" fill="none" xmlns="http://www.w3.org/2000/svg">
<path d="M25 24.9844V26H0V24.9844C0 24.6478 0.299833 24.375 0.669643 24.375H1.78571V6.09375C1.78571 5.42064 2.38532 4.875 3.125 4.875H8.03571V1.21875C8.03571 0.545645 8.63532 0 9.375 0H15.625C16.3647 0 16.9643 0.545645 16.9643 1.21875V4.875H21.875C22.6147 4.875 23.2143 5.42064 23.2143 6.09375V24.375H24.3304C24.7002 24.375 25 24.6478 25 24.9844ZM17.1875 9.75H14.9554C14.5855 9.75 14.2857 10.0228 14.2857 10.3594V12.3906C14.2857 12.7272 14.5855 13 14.9554 13H17.1875C17.5573 13 17.8571 12.7272 17.8571 12.3906V10.3594C17.8571 10.0228 17.5573 9.75 17.1875 9.75ZM7.8125 13H10.0446C10.4145 13 10.7143 12.7272 10.7143 12.3906V10.3594C10.7143 10.0228 10.4145 9.75 10.0446 9.75H7.8125C7.44269 9.75 7.14286 10.0228 7.14286 10.3594V12.3906C7.14286 12.7272 7.44269 13 7.8125 13ZM13.6161 19.5H11.3839C11.0141 19.5 10.7143 19.7728 10.7143 20.1094V24.375H14.2857V20.1094C14.2857 19.7728 13.9859 19.5 13.6161 19.5ZM17.1875 14.625H14.9554C14.5855 14.625 14.2857 14.8978 14.2857 15.2344V17.2656C14.2857 17.6022 14.5855 17.875 14.9554 17.875H17.1875C17.5573 17.875 17.8571 17.6022 17.8571 17.2656V15.2344C17.8571 14.8978 17.5573 14.625 17.1875 14.625ZM10.7143 15.2344C10.7143 14.8978 10.4145 14.625 10.0446 14.625H7.8125C7.44269 14.625 7.14286 14.8978 7.14286 15.2344V17.2656C7.14286 17.6022 7.44269 17.875 7.8125 17.875H10.0446C10.4145 17.875 10.7143 17.6022 10.7143 17.2656V15.2344ZM10.1562 4.875H11.6071V6.19531C11.6071 6.27612 11.6424 6.35362 11.7052 6.41076C11.768 6.4679 11.8532 6.5 11.942 6.5H13.058C13.1468 6.5 13.232 6.4679 13.2948 6.41076C13.3576 6.35362 13.3929 6.27612 13.3929 6.19531V4.875H14.8438C14.9326 4.875 15.0177 4.8429 15.0805 4.78576C15.1433 4.72862 15.1786 4.65112 15.1786 4.57031V3.55469C15.1786 3.47388 15.1433 3.39638 15.0805 3.33924C15.0177 3.2821 14.9326 3.25 14.8438 3.25H13.3929V1.92969C13.3929 1.84888 13.3576 1.77138 13.2948 1.71424C13.232 1.6571 13.1468 1.625 13.058 1.625H11.942C11.8532 1.625 11.768 1.6571 11.7052 1.71424C11.6424 1.77138 11.6071 1.84888 11.6071 1.92969V3.25H10.1562C10.0674 3.25 9.98229 3.2821 9.9195 3.33924C9.8567 3.39638 9.82143 3.47388 9.82143 3.55469V4.57031C9.82143 4.65112 9.8567 4.72862 9.9195 4.78576C9.98229 4.8429 10.0674 4.875 10.1562 4.875Z" fill="#008D77"/>
</svg>
