<svg width="25" height="26" viewBox="0 0 25 26" fill="none" xmlns="http://www.w3.org/2000/svg">
<path d="M11.2154 25.4754C1.75586 14.7789 0 13.6811 0 9.75C0 4.36521 5.59642 0 12.5 0C19.4036 0 25 4.36521 25 9.75C25 13.6811 23.2441 14.7789 13.7846 25.4754C13.1639 26.1749 11.8361 26.1748 11.2154 25.4754ZM12.5 13.8125C15.3765 13.8125 17.7083 11.9937 17.7083 9.75C17.7083 7.50633 15.3765 5.6875 12.5 5.6875C9.6235 5.6875 7.29167 7.50633 7.29167 9.75C7.29167 11.9937 9.6235 13.8125 12.5 13.8125Z" fill="#008D77"/>
</svg>
