<svg width="39" height="33" viewBox="0 0 39 33" fill="none" xmlns="http://www.w3.org/2000/svg">
<path d="M19.4865 0C14.7779 0 10.9611 3.56778 10.9611 7.96915C10.9611 11.5274 16.533 18.0128 18.6678 20.3669C19.1001 20.8438 19.8735 20.8438 20.3052 20.3669C22.4399 18.0128 28.0118 11.5274 28.0118 7.96915C28.0118 3.56778 24.195 0 19.4865 0ZM19.4865 10.6255C17.9167 10.6255 16.6447 9.43649 16.6447 7.96915C16.6447 6.50181 17.9167 5.31277 19.4865 5.31277C21.0562 5.31277 22.3282 6.50181 22.3282 7.96915C22.3282 9.43649 21.0562 10.6255 19.4865 10.6255ZM1.36135 13.6582C0.959558 13.8085 0.61513 14.0678 0.372482 14.4027C0.129834 14.7376 9.62284e-05 15.1328 0 15.5373L0 31.3694C0 32.0853 0.773369 32.5748 1.48449 32.3092L10.8258 28.3348V13.5931C10.2277 12.5824 9.73849 11.5983 9.38801 10.6572L1.36135 13.6582ZM19.4865 22.7481C18.5345 22.7481 17.6339 22.3573 17.0161 21.6755C15.6859 20.2081 14.2711 18.5371 12.991 16.8231V28.3341L25.9819 32.3819V16.8238C24.7018 18.5371 23.2877 20.2088 21.9568 21.6761C21.339 22.3573 20.4385 22.7481 19.4865 22.7481ZM37.4884 10.1929L28.1471 14.1674V32.3826L37.6116 28.8439C38.0134 28.6937 38.3579 28.4345 38.6006 28.0995C38.8432 27.7646 38.9729 27.3693 38.9729 26.9648V11.1328C38.9729 10.4168 38.1996 9.92728 37.4884 10.1929Z" fill="#008D77"/>
</svg>
