<svg width="27" height="28" viewBox="0 0 27 28" fill="none" xmlns="http://www.w3.org/2000/svg">
<path fill-rule="evenodd" clip-rule="evenodd" d="M2.28845 7.19643C3.60091 5.8126 4.06566 5.42444 4.62442 5.24515C5.0117 5.14328 5.41797 5.1373 5.80807 5.22774C6.32156 5.37744 6.45559 5.49058 8.14055 7.16684C9.62006 8.63944 9.76628 8.79958 9.90901 9.08157C10.1851 9.58911 10.2295 10.1909 10.0309 10.7334C9.88464 11.1424 9.6688 11.414 8.77241 12.3156L8.18755 12.9022C8.03368 13.0584 7.99719 13.2956 8.09704 13.4906C9.39534 15.7057 11.237 17.5533 13.4478 18.8588C13.7028 18.9956 14.017 18.9512 14.2241 18.7491L14.7863 18.1956C15.1338 17.8391 15.5018 17.5032 15.8882 17.1895C16.4943 16.8145 17.251 16.7783 17.8899 17.0937C18.2015 17.24 18.306 17.3357 19.8325 18.857C21.3991 20.4236 21.4496 20.4741 21.6254 20.8344C21.9537 21.4313 21.9504 22.1554 21.6167 22.7492C21.4426 23.0834 21.3452 23.2052 20.4609 24.1086C19.9265 24.6552 19.4165 25.153 19.3434 25.2261C18.6132 25.8298 17.6771 26.1262 16.7324 26.0529C15.0043 25.8949 13.3318 25.3601 11.8324 24.4863C8.50928 22.7257 5.68039 20.1601 3.60439 17.0241C3.15041 16.3686 2.74659 15.6796 2.39637 14.9632C1.46322 13.3635 0.980794 11.5409 1.00036 9.68906C1.07054 8.71693 1.53608 7.81604 2.28845 7.19643Z" stroke="white" stroke-width="1.9496" stroke-linecap="round" stroke-linejoin="round"/>
<path d="M17.2613 0.453326C16.5826 0.209755 15.8352 0.562431 15.5915 1.24106C15.3479 1.91968 15.7006 2.66726 16.3793 2.91083L17.2613 0.453326ZM24.1284 10.5302C24.3834 11.2047 25.1367 11.5447 25.8112 11.2897C26.4856 11.0347 26.8257 10.2813 26.5707 9.60689L24.1284 10.5302ZM15.1932 4.33035C14.4898 4.17154 13.7909 4.6129 13.6322 5.3162C13.4733 6.01949 13.9147 6.71839 14.6179 6.87722L15.1932 4.33035ZM20.269 12.4348C20.4396 13.1355 21.1457 13.5651 21.8462 13.3945C22.5468 13.2239 22.9764 12.5179 22.806 11.8173L20.269 12.4348ZM16.3793 2.91083C19.9532 4.19361 22.7854 6.97841 24.1284 10.5302L26.5707 9.60689C24.9574 5.33989 21.555 1.99439 17.2613 0.453326L16.3793 2.91083ZM14.6179 6.87722C17.4042 7.50645 19.5934 9.65955 20.269 12.4348L22.806 11.8173C21.8958 8.07857 18.9464 5.17802 15.1932 4.33035L14.6179 6.87722Z" fill="white"/>
</svg>
