<svg width="30" height="32" viewBox="0 0 30 32" fill="none" xmlns="http://www.w3.org/2000/svg">
<path d="M23.5714 19.8298C22.0575 19.8298 20.666 20.3144 19.5676 21.1247L12.7047 17.1554C12.908 16.3046 12.908 15.4231 12.7047 14.5723L19.5676 10.603C20.666 11.4134 22.0575 11.8979 23.5714 11.8979C27.1218 11.8979 30 9.23445 30 5.94895C30 2.66346 27.1218 0 23.5714 0C20.021 0 17.1429 2.66346 17.1429 5.94895C17.1429 6.39252 17.1958 6.82456 17.2953 7.24043L10.4324 11.2097C9.33395 10.3995 7.9425 9.91492 6.42857 9.91492C2.87819 9.91492 0 12.5784 0 15.8639C0 19.1494 2.87819 21.8128 6.42857 21.8128C7.9425 21.8128 9.33395 21.3283 10.4324 20.518L17.2953 24.4873C17.1938 24.9114 17.1427 25.3445 17.1429 25.7788C17.1429 29.0643 20.021 31.7277 23.5714 31.7277C27.1218 31.7277 30 29.0643 30 25.7788C30 22.4933 27.1218 19.8298 23.5714 19.8298Z" fill="#526076" fill-opacity="0.8"/>
</svg>
