<svg width="20" height="25" viewBox="0 0 20 25" fill="none" xmlns="http://www.w3.org/2000/svg">
<path d="M12.8578 6.64062V0H3.92918C3.33543 0 2.85775 0.522461 2.85775 1.17188V12.5H0.357753C0.161325 12.5 0.000610352 12.6758 0.000610352 12.8906V13.6719C0.000610352 13.8867 0.161325 14.0625 0.357753 14.0625H6.64793C6.78186 14.0625 6.90686 14.1455 6.96936 14.2773L7.85775 16.2207L10.3935 10.6689C10.5229 10.3809 10.9024 10.3809 11.0319 10.6689L12.581 14.0625H15.7149C16.1078 14.0625 16.4292 14.4141 16.4292 14.8438C16.4292 15.2734 16.1078 15.625 15.7149 15.625H11.7015L10.7149 13.4668L8.17918 19.0186C8.04972 19.3066 7.67025 19.3066 7.54079 19.0186L5.98722 15.625H2.85775V23.8281C2.85775 24.4775 3.33543 25 3.92918 25H18.9292C19.5229 25 20.0006 24.4775 20.0006 23.8281V7.8125H13.9292C13.3399 7.8125 12.8578 7.28516 12.8578 6.64062ZM19.6881 5.12695L15.3176 0.341797C15.1167 0.12207 14.8444 0 14.5586 0H14.2863V6.25H20.0006V5.95215C20.0006 5.64453 19.889 5.34668 19.6881 5.12695Z" fill="#16C8AD"/>
</svg>
