<svg width="25" height="26" viewBox="0 0 25 26" fill="none" xmlns="http://www.w3.org/2000/svg">
<path d="M24.375 17.875H23.75V12.3855C23.75 11.7406 23.5508 11.1211 23.1992 10.6641L19.2969 5.59102C18.9453 5.13398 18.4688 4.875 17.9727 4.875H16.25V2.4375C16.25 1.0918 15.4102 0 14.375 0H1.875C0.839844 0 0 1.0918 0 2.4375V18.6875C0 20.0332 0.839844 21.125 1.875 21.125H2.5C2.5 23.8164 4.17969 26 6.25 26C8.32031 26 10 23.8164 10 21.125H15C15 23.8164 16.6797 26 18.75 26C20.8203 26 22.5 23.8164 22.5 21.125H24.375C24.7188 21.125 25 20.7594 25 20.3125V18.6875C25 18.2406 24.7188 17.875 24.375 17.875ZM6.25 23.5625C5.21484 23.5625 4.375 22.4707 4.375 21.125C4.375 19.7793 5.21484 18.6875 6.25 18.6875C7.28516 18.6875 8.125 19.7793 8.125 21.125C8.125 22.4707 7.28516 23.5625 6.25 23.5625ZM11.875 10.9688C11.875 11.1922 11.7344 11.375 11.5625 11.375H9.375V14.2188C9.375 14.4422 9.23438 14.625 9.0625 14.625H7.1875C7.01562 14.625 6.875 14.4422 6.875 14.2188V11.375H4.6875C4.51562 11.375 4.375 11.1922 4.375 10.9688V8.53125C4.375 8.30781 4.51562 8.125 4.6875 8.125H6.875V5.28125C6.875 5.05781 7.01562 4.875 7.1875 4.875H9.0625C9.23438 4.875 9.375 5.05781 9.375 5.28125V8.125H11.5625C11.7344 8.125 11.875 8.30781 11.875 8.53125V10.9688ZM18.75 23.5625C17.7148 23.5625 16.875 22.4707 16.875 21.125C16.875 19.7793 17.7148 18.6875 18.75 18.6875C19.7852 18.6875 20.625 19.7793 20.625 21.125C20.625 22.4707 19.7852 23.5625 18.75 23.5625ZM21.875 13H16.25V7.3125H17.9727L21.875 12.3855V13Z" fill="#008D77"/>
</svg>
